<?xml version="1.0" encoding="UTF-8"?> <svg xmlns="http://www.w3.org/2000/svg" width="481" height="487" viewBox="0 0 481 487" fill="none"> <path d="M391.75 54.2579C439.95 94.7579 474.75 151.258 479.85 208.758C484.95 266.358 460.35 324.858 427.55 375.958C394.85 427.058 353.95 470.758 305.95 483.058C258.05 495.358 202.95 476.258 155.55 452.058C108.15 427.858 68.4499 398.658 39.0499 358.258C9.74989 317.958 -9.15011 266.558 4.54989 226.558C18.3499 186.558 64.9499 157.958 106.25 116.258C147.65 74.5579 183.85 19.6579 232.75 4.55794C281.75 -10.6421 343.45 13.7579 391.75 54.2579Z" fill="url(#paint0_linear)"></path> <defs> <linearGradient id="paint0_linear" x1="240.26" y1="0" x2="240.26" y2="486.898" gradientUnits="userSpaceOnUse"> <stop stop-color="#5602C0"></stop> <stop offset="1" stop-color="#E7043A"></stop> </linearGradient> </defs> </svg> 